<?xml version="1.0" encoding="UTF-8"?>
<svg width="400px" height="400px" viewBox="0 0 400 400" version="1.1" xmlns="http://www.w3.org/2000/svg" xmlns:xlink="http://www.w3.org/1999/xlink">
    <title>画板</title>
    <g id="画板" stroke="none" stroke-width="1" fill="none" fill-rule="evenodd">
        <g id="编组" transform="translate(3.000000, 3.000000)">
            <g id="编组-2" opacity="0.668524606" stroke="#20627F">
                <line x1="104" y1="27" x2="289.914546" y2="367.164103" id="路径-6" stroke-width="1.68376068"></line>
                <line x1="17" y1="115" x2="376.695985" y2="279.377582" id="路径-7" stroke-width="1.68376068"></line>
                <line x1="295.917787" y1="30" x2="99" y2="363.95627" id="路径-8" stroke-width="1.68376068"></line>
                <line x1="376.695985" y1="120" x2="17" y2="273.066338" id="路径-9" stroke-width="1.68376068"></line>
                <line x1="0" y1="197.42094" x2="394" y2="197.42094" id="路径-10" stroke-width="1.68376068"></line>
                <line x1="197.42094" y1="0" x2="197.42094" y2="394" id="路径-11" stroke-width="1.68376068"></line>
                <g id="椭圆形-2" opacity="0.469746908" stroke-width="5.05128205">
                    <circle id="椭圆形" cx="197" cy="197" r="194.474359"></circle>
                </g>
            </g>
            <g id="椭圆形-2" opacity="0.588260469" transform="translate(64.824786, 64.824786)" stroke="#20627F" stroke-width="5.05128205">
                <circle id="椭圆形" opacity="0.469746908" cx="132.596154" cy="132.596154" r="130.070513"></circle>
            </g>
            <path d="M103.19523,23.7241085 C64.8861552,44.5069586 34.2422335,77.623632 16.5908316,117.746762 M17.9532212,279.280232 C35.2932874,316.951063 64.1722277,348.213457 100.061066,368.538438 M290.992862,370.173718 C326.976829,350.6015 356.181275,320.140611 374.182465,283.214787 M380.409916,124.954261 C364.592843,84.7197389 335.91905,50.9488737 299.447066,28.7001956" id="形状" stroke="#00B1FF" stroke-width="3.36752137"></path>
        </g>
    </g>
</svg>