<?xml version="1.0" encoding="UTF-8"?>
<svg width="400px" height="400px" viewBox="0 0 400 400" version="1.1" xmlns="http://www.w3.org/2000/svg" xmlns:xlink="http://www.w3.org/1999/xlink">
    <title>画板</title>
    <g id="画板" stroke="none" stroke-width="1" fill="none" fill-rule="evenodd">
        <g id="编组-7" transform="translate(26.000000, 2.000000)" fill="#287E5B">
            <path d="M326.957012,253.390993 L354.543904,266.121635 C324.358661,340.667434 254.694914,392.853301 173.57824,392.853301 C98.5653505,392.853301 33.3466405,348.225611 0.0852758601,282.557155 L25.8381364,265.949018 C53.792602,322.386864 109.463552,360.861199 173.57824,360.861199 C242.343907,360.861199 301.396359,316.602425 326.957012,253.390993 Z" id="形状结合"></path>
            <path d="M170.204156,0.616136919 C226.261699,0.616136919 277.179695,22.6211545 314.79143,58.4644768 L293.370817,82.2470295 C261.437664,51.5085054 218.028107,32.6082383 170.204156,32.6082383 C156.370248,32.6082383 142.905716,34.1897298 129.981495,37.1817795 L125.699636,5.35024717 C140.042978,2.24921032 154.932855,0.616136919 170.204156,0.616136919 Z" id="形状结合"></path>
        </g>
    </g>
</svg>